<?xml version="1.0" encoding="UTF-8"?>
<svg id="Layer_1" xmlns="http://www.w3.org/2000/svg" version="1.1" viewBox="0 0 441.5 106.5">
  <!-- Generator: Adobe Illustrator 29.2.1, SVG Export Plug-In . SVG Version: 2.1.0 Build 116)  -->
  <path d="M24.7,76.7c-4.1,0-8.1-.9-11.9-2.6s-6.9-4.3-9.2-7.7c-2.4-3.4-3.5-7.4-3.5-12.1s1.2-9.7,3.7-12.9c2.5-3.2,5.9-5.7,10.2-7.3,4.3-1.7,9-2.8,14.1-3.5l10.1-1.2c2-.3,3.5-.7,4.7-1.2,1.2-.5,2-1.2,2.5-2,.5-.8.7-1.9.7-3.1,0-2.4-1-4.4-2.9-6.2s-4.8-2.7-8.4-2.7-5,.5-7,1.5c-2,1-3.6,2.3-4.7,4-1.1,1.7-1.8,3.8-2.1,6.3H1.5c.4-5,2-9.4,4.7-13.3,2.7-3.9,6.5-6.9,11.2-9.1C22,1.1,27.5,0,33.9,0s13.3,1.2,17.9,3.7c4.6,2.5,8,6.1,10.1,10.9,2.1,4.7,3.2,10.5,3.2,17.2v42.2h-17.8v-2.8c0-1.2,0-2.3.2-3.4.1-1.1.3-2.3.5-3.4-2,3.5-4.8,6.4-8.6,8.8-3.8,2.3-8.7,3.5-14.8,3.5h0ZM30.1,62.8c3.1,0,6-.7,8.4-2,2.5-1.4,4.5-3.3,5.9-5.8,1.4-2.5,2.1-5.3,2.1-8.6v-7.3c-.7.6-1.7,1.1-2.9,1.5-1.3.4-3,.9-5.3,1.4l-5.6,1c-2.6.5-5,1.2-7.1,2-2.1.9-3.7,2-4.8,3.3-1.1,1.3-1.6,3-1.6,5.1,0,3,1,5.3,3.2,7,2.1,1.6,4.7,2.4,7.7,2.4h0Z"/>
  <path d="M107,106.5c-7.1,0-13.2-1.2-18.2-3.4-5-2.3-8.8-5.6-11.5-9.8-2.6-4.2-4-9.1-4-14.6h19.4c.2,4.1,1.5,7.3,4,9.6,2.5,2.3,6,3.4,10.6,3.4s8.5-1.3,11.8-4,4.9-6.6,4.9-11.7v-7.5c0-1.7,0-3.2.1-4.5s.2-2.8.3-4.2c-1.3,2.2-2.9,4.1-5,5.9-2.1,1.8-4.5,3.2-7.3,4.2-2.8,1-6,1.5-9.8,1.5-6.1,0-11.5-1.4-16.4-4.2-4.9-2.8-8.7-6.8-11.5-12.2-2.8-5.3-4.2-11.8-4.2-19.4s.9-10.6,2.6-15c1.8-4.5,4.1-8.2,7-11.2,2.9-3,6.3-5.3,10-7,3.7-1.6,7.6-2.4,11.6-2.4s7.5.5,10.4,1.6c2.9,1.1,5.4,2.5,7.4,4.3s3.6,3.9,4.9,6.4c-.1-1.3-.2-2.4-.3-3.5-.1-1.1-.1-2.2-.1-3.5v-2.8h19.1v68.8c0,7.9-1.5,14.5-4.5,19.7s-7.3,9.1-12.8,11.7c-5.5,2.5-11.8,3.8-18.9,3.8h0,0ZM107.7,56.3c2.5,0,4.9-.5,7-1.5,2.1-1,4-2.4,5.6-4.2,1.6-1.8,2.8-4,3.7-6.5s1.3-5.3,1.3-8.4-.8-7.5-2.3-10.6c-1.5-3.1-3.6-5.5-6.2-7.3-2.6-1.8-5.7-2.6-9.1-2.6s-6.5.9-9.2,2.6-4.8,4.2-6.3,7.3c-1.5,3.1-2.3,6.6-2.3,10.6s.8,7.6,2.3,10.7,3.6,5.6,6.3,7.3c2.7,1.8,5.8,2.6,9.2,2.6h0Z"/>
  <path d="M185.2,76.7c-7.2,0-13.6-1.5-19.2-4.5s-9.9-7.3-13-13.1-4.7-12.8-4.7-21,1.6-14.2,4.7-19.9c3.1-5.8,7.4-10.2,12.9-13.4C171.5,1.6,177.7,0,184.6,0s13.8,1.6,18.9,4.8c5.2,3.2,9.1,7.7,11.9,13.5,2.7,5.8,4.1,12.7,4.1,20.6v4h-51.8c.1,3.6.9,6.9,2.4,9.8s3.5,5.2,6.1,6.9c2.6,1.7,5.6,2.6,9,2.6s7-1,9.7-3c2.7-2,4.4-4.8,5-8.4h19.2c-.5,4.9-2.1,9.3-5,13.3-2.8,4-6.7,7.1-11.7,9.4-4.9,2.3-10.7,3.4-17.2,3.4h0ZM167.6,29.6h32.5c0-4.7-1.4-8.5-4.3-11.4-2.8-2.9-6.6-4.3-11.3-4.3s-5.8.7-8.2,2.1c-2.5,1.4-4.4,3.2-5.9,5.6-1.5,2.4-2.4,5-2.8,8.1h0Z"/>
  <path d="M226.4,74.1V2.5h18.9v2.9c0,1,0,2.1,0,3.2,0,1.2-.2,2.4-.4,3.7,1.4-2.2,3-4.3,4.9-6.2,1.9-1.8,4.3-3.3,7.1-4.5,2.8-1.1,6.2-1.7,10-1.7s9.8,1.2,13.6,3.5c3.8,2.3,6.6,5.7,8.6,10s2.9,9.4,2.9,15.2v45.3h-18.9V31.7c0-3.4-.5-6.4-1.5-8.8-1-2.4-2.5-4.4-4.4-5.7-1.9-1.4-4.2-2.1-7-2.1s-5.5.7-7.6,2.2c-2.2,1.5-3.9,3.5-5.1,6.1-1.3,2.6-1.9,5.5-1.9,8.7v41.9h-19.1Z"/>
  <path d="M334.3,76.7c-7.5,0-14-1.6-19.5-4.7-5.5-3.1-9.7-7.6-12.6-13.3-2.9-5.7-4.4-12.6-4.4-20.6s1-11.2,2.9-15.9c2-4.7,4.6-8.8,8-12.1,3.4-3.3,7.3-5.8,11.9-7.6S330,0,335.1,0s13.1,1.3,18.1,4c5,2.6,8.8,6.2,11.5,10.7,2.7,4.5,4.3,9.5,4.9,15.1h-19.4c-.2-3.9-1.5-7.3-4-10.3-2.5-2.9-6.1-4.4-11-4.4s-4.9.5-7,1.4c-2.2.9-4.1,2.4-5.8,4.4-1.7,2-3,4.4-4,7.3-.9,2.9-1.4,6.2-1.4,10s.8,8.7,2.3,12.2c1.5,3.6,3.6,6.3,6.2,8.4,2.6,2,5.7,3,9.2,3,5.2,0,9.1-1.6,11.7-4.7,2.6-3.1,4.1-6.7,4.5-10.8h19.4c-.9,6.2-2.8,11.5-5.7,16.1-2.9,4.6-6.9,8.1-12,10.6-5,2.5-11.2,3.7-18.4,3.7h0Z"/>
  <path d="M381.6,106.5c-2.2,0-4-.1-5.5-.4s-2.8-.6-3.8-.9v-15c.7,0,1.5.2,2.5.4,1,.2,2.1.3,3.4.3,3,0,5.8-.9,8.4-2.7,2.5-1.8,4.9-5.6,7-11.4l1.3-3.4L367.4,2.5h21.4l14.4,44.4c.5,1.6.9,3,1.3,4.3s.8,2.9,1.2,4.6c.3-1.8.6-3.3,1-4.6s.8-2.8,1.2-4.3l13.8-44.4h19.8l-29.5,79.6c-1.9,5.2-4.1,9.6-6.7,13.2-2.6,3.6-5.8,6.4-9.6,8.3-3.8,1.9-8.5,2.9-14.1,2.9h0Z"/>
</svg>