<?xml version="1.0" encoding="UTF-8"?>
<svg xmlns="http://www.w3.org/2000/svg" version="1.1" viewBox="0 0 501.1 157.7">
  <!-- Generator: Adobe Illustrator 28.7.4, SVG Export Plug-In . SVG Version: 1.2.0 Build 166)  -->
  <g>
    <g id="Layer_1">
      <path d="M167.3,5.1h-19.6v147.1h39.2V5.1h-19.6Z"/>
      <path d="M50.7,157.7c-8.5,0-16.6-1.8-24.5-5.4s-14.2-8.9-19-15.8c-4.8-6.9-7.2-15.2-7.2-24.9s2.6-19.9,7.7-26.5c5.1-6.6,12.1-11.7,21-15.1,8.9-3.4,18.5-5.8,29-7.2l20.8-2.4c4-.6,7.2-1.5,9.7-2.6,2.4-1.1,4.1-2.5,5.1-4.2,1-1.7,1.5-3.9,1.5-6.5,0-4.8-2-9.1-6-12.8-4-3.7-9.8-5.6-17.2-5.6s-10.2,1-14.3,3c-4.1,2-7.3,4.7-9.7,8.1-2.3,3.4-3.8,7.7-4.4,13H3c.8-10.3,4-19.4,9.7-27.4,5.6-8,13.3-14.3,22.9-18.7C45.3,2.2,56.6,0,69.7,0s27.4,2.6,36.8,7.7c9.5,5.1,16.3,12.6,20.7,22.3,4.3,9.7,6.5,21.6,6.5,35.4v86.8h-36.5v-5.7c0-2.4.1-4.8.5-7.1.3-2.3.7-4.7,1.1-7.1-4,7.2-9.9,13.3-17.7,18.1-7.7,4.8-17.9,7.2-30.3,7.2h0ZM61.9,129c6.4,0,12.2-1.4,17.4-4.2,5.1-2.8,9.2-6.8,12.1-11.9,2.9-5.1,4.4-11,4.4-17.6v-15.1c-1.4,1.2-3.4,2.3-6,3.2-2.6.9-6.2,1.9-10.9,2.9l-11.5,2.1c-5.4,1-10.3,2.4-14.6,4.2-4.3,1.8-7.6,4.1-9.8,6.8-2.2,2.7-3.3,6.2-3.3,10.4,0,6.2,2.2,11,6.5,14.3,4.3,3.3,9.6,5,15.9,5h0Z"/>
      <path d="M202.9,152.3V5.1h38.9v6c0,2,0,4.2-.1,6.6-.1,2.4-.4,4.9-.8,7.5,2.8-4.6,6.2-8.8,10.1-12.7,3.9-3.8,8.8-6.9,14.6-9.2,5.8-2.3,12.7-3.5,20.5-3.5s20.2,2.4,27.9,7.2c7.7,4.8,13.6,11.7,17.7,20.5,4,8.8,6,19.3,6,31.4v93.2h-38.9v-87.1c0-7-1.1-13.1-3.2-18.1-2.1-5-5.1-8.9-9.1-11.8-3.9-2.8-8.7-4.2-14.3-4.2s-11.3,1.5-15.7,4.5c-4.4,3-8,7.2-10.6,12.5-2.6,5.3-3.9,11.3-3.9,17.9v86.2h-39.2Z"/>
      <path d="M424.8,157.7c-14.9,0-28.1-3.1-39.5-9.3-11.5-6.2-20.5-15.2-27-26.8-6.5-11.7-9.8-25.8-9.8-42.5s1.9-23,5.7-32.7c3.8-9.7,9.1-18,15.9-24.9,6.7-6.8,14.7-12.1,24-15.8,9.3-3.7,19.5-5.6,30.8-5.6s28.1,3.2,39.5,9.7c11.5,6.4,20.5,15.6,27,27.4,6.5,11.9,9.8,25.8,9.8,41.9s-3.3,30.9-9.8,42.5c-6.5,11.7-15.5,20.6-27,26.8-11.5,6.2-24.7,9.3-39.5,9.3h0ZM424.8,127.2c7,0,13.3-1.9,18.9-5.7,5.5-3.8,9.9-9.3,13-16.6,3.1-7.2,4.7-15.9,4.7-25.9s-1.6-18.7-4.7-25.9c-3.1-7.2-7.4-12.7-12.8-16.4-5.4-3.7-11.8-5.6-19-5.6s-13.6,1.9-19.2,5.6c-5.5,3.7-9.9,9.2-13,16.4-3.1,7.2-4.7,15.9-4.7,25.9s1.6,18.7,4.7,25.9c3.1,7.2,7.4,12.8,12.8,16.6,5.4,3.8,11.9,5.7,19.3,5.7h0Z"/>
    </g>
  </g>
</svg>