<?xml version="1.0" encoding="UTF-8"?>
<svg id="Layer_1" xmlns="http://www.w3.org/2000/svg" version="1.1" viewBox="0 0 718.9 106.47">
  <!-- Generator: Adobe Illustrator 29.2.1, SVG Export Plug-In . SVG Version: 2.1.0 Build 116)  -->
  <path d="M24.67,76.7c-4.11,0-8.07-.88-11.89-2.64-3.82-1.76-6.9-4.33-9.25-7.7-2.35-3.37-3.52-7.4-3.52-12.1,0-5.38,1.25-9.68,3.74-12.9,2.5-3.23,5.9-5.67,10.2-7.33,4.31-1.66,9-2.83,14.09-3.52l10.13-1.17c1.96-.29,3.52-.71,4.7-1.24,1.17-.54,2-1.22,2.5-2.05.49-.83.73-1.88.73-3.15,0-2.35-.98-4.42-2.94-6.23-1.96-1.81-4.75-2.71-8.37-2.71-2.64,0-4.97.49-6.97,1.46-2.01.98-3.57,2.3-4.7,3.96-1.13,1.66-1.84,3.76-2.13,6.31H1.47c.39-4.99,1.96-9.43,4.7-13.34,2.74-3.91,6.46-6.94,11.16-9.09C22.02,1.08,27.55,0,33.91,0,41.26,0,47.22,1.25,51.83,3.74c4.6,2.49,7.95,6.11,10.06,10.85,2.1,4.74,3.16,10.49,3.16,17.23v42.23h-17.76v-2.79c0-1.17.07-2.32.22-3.45.15-1.12.32-2.27.51-3.45-1.96,3.52-4.82,6.45-8.59,8.8-3.77,2.35-8.69,3.52-14.76,3.52h0ZM30.1,62.77c3.13,0,5.95-.68,8.44-2.05,2.5-1.37,4.45-3.3,5.87-5.79,1.42-2.49,2.13-5.35,2.13-8.58v-7.33c-.69.59-1.67,1.1-2.94,1.54-1.27.44-3.03.91-5.29,1.39l-5.58,1.02c-2.64.49-5.02,1.17-7.12,2.05-2.11.88-3.7,1.98-4.77,3.3-1.08,1.32-1.61,3.01-1.61,5.06,0,3.03,1.05,5.35,3.16,6.96,2.1,1.61,4.68,2.42,7.71,2.42h0Z"/>
  <path d="M81.39,2.5h-9.54v71.56h19.09V2.5h-9.55Z"/>
  <path d="M98.75,74.06V2.5h18.94v2.93c0,.98-.03,2.05-.07,3.23-.05,1.17-.17,2.4-.37,3.67,1.37-2.25,3.01-4.3,4.92-6.16,1.91-1.85,4.28-3.35,7.12-4.47,2.84-1.12,6.17-1.69,9.98-1.69,5.29,0,9.81,1.17,13.58,3.52,3.77,2.35,6.63,5.67,8.59,9.97,1.96,4.3,2.94,9.39,2.94,15.25v45.31h-18.94V31.68c0-3.42-.51-6.35-1.54-8.8-1.03-2.44-2.5-4.35-4.4-5.72-1.91-1.37-4.23-2.05-6.97-2.05-2.94,0-5.48.73-7.63,2.2-2.15,1.46-3.87,3.5-5.14,6.08-1.27,2.59-1.91,5.5-1.91,8.73v41.94h-19.09Z"/>
  <path d="M206.21,76.7c-7.24,0-13.65-1.52-19.24-4.55-5.58-3.03-9.96-7.38-13.14-13.05-3.18-5.67-4.77-12.56-4.77-20.68,0-5.87.93-11.17,2.79-15.91,1.86-4.74,4.43-8.77,7.71-12.1,3.28-3.32,7.17-5.89,11.67-7.7,4.5-1.81,9.49-2.71,14.98-2.71,7.24,0,13.65,1.57,19.24,4.7,5.58,3.13,9.96,7.58,13.14,13.34,3.18,5.77,4.77,12.57,4.77,20.38s-1.59,15.01-4.77,20.68c-3.18,5.67-7.56,10.02-13.14,13.05-5.58,3.03-11.99,4.55-19.24,4.55h0ZM206.21,61.89c3.42,0,6.48-.93,9.18-2.79,2.69-1.85,4.79-4.55,6.31-8.07,1.52-3.52,2.28-7.72,2.28-12.61s-.76-9.09-2.28-12.61c-1.52-3.52-3.6-6.18-6.24-7.99-2.64-1.81-5.73-2.71-9.25-2.71s-6.63.91-9.33,2.71c-2.69,1.81-4.8,4.47-6.32,7.99-1.52,3.52-2.28,7.73-2.28,12.61s.76,9.09,2.28,12.61c1.52,3.52,3.6,6.21,6.24,8.07,2.64,1.86,5.77,2.79,9.4,2.79h0Z"/>
  <path d="M248.65,74.06v-20.52h20.94v20.52h-20.94Z"/>
  <path d="M302.07,76.7c-4.11,0-8.07-.88-11.89-2.64-3.82-1.76-6.9-4.33-9.25-7.7-2.35-3.37-3.52-7.4-3.52-12.1,0-5.38,1.25-9.68,3.74-12.9,2.5-3.23,5.9-5.67,10.2-7.33,4.31-1.66,9-2.83,14.09-3.52l10.13-1.17c1.96-.29,3.52-.71,4.7-1.24,1.17-.54,2-1.22,2.5-2.05.49-.83.73-1.88.73-3.15,0-2.35-.98-4.42-2.94-6.23-1.96-1.81-4.75-2.71-8.37-2.71-2.64,0-4.97.49-6.97,1.46-2.01.98-3.57,2.3-4.7,3.96-1.13,1.66-1.84,3.76-2.13,6.31h-19.53c.39-4.99,1.96-9.43,4.7-13.34,2.74-3.91,6.46-6.94,11.16-9.09C299.42,1.08,304.95,0,311.31,0c7.34,0,13.31,1.24,17.91,3.74,4.6,2.49,7.95,6.11,10.06,10.85,2.1,4.74,3.16,10.49,3.16,17.23v42.23h-17.77v-2.79c0-1.17.07-2.32.22-3.45.15-1.12.32-2.27.51-3.45-1.96,3.52-4.82,6.45-8.59,8.8-3.77,2.35-8.69,3.52-14.76,3.52h0ZM307.5,62.77c3.13,0,5.95-.68,8.44-2.05,2.5-1.37,4.45-3.3,5.87-5.79,1.42-2.49,2.13-5.35,2.13-8.58v-7.33c-.69.59-1.67,1.1-2.94,1.54-1.27.44-3.03.91-5.29,1.39l-5.58,1.02c-2.64.49-5.02,1.17-7.12,2.05-2.11.88-3.7,1.98-4.77,3.3-1.08,1.32-1.61,3.01-1.61,5.06,0,3.03,1.05,5.35,3.16,6.96,2.1,1.61,4.68,2.42,7.71,2.42h0Z"/>
  <path d="M384.37,106.47c-7.15,0-13.21-1.15-18.21-3.45-4.99-2.3-8.81-5.57-11.45-9.83-2.64-4.25-3.96-9.12-3.96-14.59h19.38c.2,4.11,1.54,7.31,4.04,9.61,2.5,2.29,6.04,3.45,10.64,3.45s8.54-1.32,11.82-3.96c3.28-2.64,4.92-6.55,4.92-11.73v-7.48c0-1.66.05-3.18.15-4.55.1-1.37.2-2.79.29-4.25-1.27,2.15-2.94,4.13-4.99,5.94-2.06,1.81-4.48,3.23-7.27,4.25-2.79,1.03-6.04,1.54-9.76,1.54-6.07,0-11.53-1.39-16.37-4.18-4.85-2.79-8.66-6.84-11.45-12.17-2.79-5.33-4.18-11.8-4.18-19.43,0-5.57.88-10.58,2.64-15.03,1.76-4.45,4.11-8.19,7.05-11.22,2.94-3.03,6.26-5.35,9.98-6.96C371.34.81,375.21,0,379.22,0s7.49.54,10.42,1.61c2.94,1.08,5.41,2.52,7.41,4.33,2,1.81,3.65,3.94,4.92,6.38-.1-1.27-.2-2.44-.29-3.52-.1-1.08-.15-2.25-.15-3.52v-2.79h19.09v68.78c0,7.92-1.52,14.49-4.55,19.72-3.03,5.23-7.29,9.11-12.78,11.66-5.49,2.54-11.8,3.81-18.94,3.81h.02ZM385.11,56.32c2.54,0,4.89-.51,7.05-1.54,2.15-1.02,4.01-2.44,5.58-4.25,1.56-1.81,2.79-3.96,3.67-6.45.88-2.49,1.32-5.3,1.32-8.43,0-4.01-.76-7.55-2.28-10.63-1.52-3.08-3.6-5.5-6.24-7.26-2.64-1.76-5.68-2.64-9.11-2.64s-6.49.88-9.18,2.64c-2.69,1.76-4.8,4.18-6.32,7.26-1.52,3.08-2.28,6.63-2.28,10.63s.76,7.58,2.28,10.71c1.52,3.13,3.62,5.57,6.32,7.33,2.69,1.76,5.75,2.64,9.18,2.64h0Z"/>
  <path d="M462.61,76.7c-7.24,0-13.63-1.49-19.16-4.47-5.53-2.98-9.86-7.35-12.99-13.12-3.13-5.77-4.7-12.76-4.7-20.97,0-7.53,1.56-14.17,4.7-19.94,3.13-5.77,7.44-10.24,12.92-13.42,5.48-3.18,11.69-4.77,18.65-4.77,7.44,0,13.75,1.59,18.94,4.77,5.19,3.18,9.15,7.68,11.89,13.49,2.74,5.82,4.11,12.68,4.11,20.6v3.96h-51.83c.1,3.62.88,6.87,2.35,9.75,1.47,2.88,3.5,5.18,6.1,6.89,2.59,1.71,5.6,2.57,9.03,2.57,3.72,0,6.95-1,9.69-3.01,2.74-2,4.4-4.81,4.99-8.43h19.24c-.49,4.89-2.15,9.31-4.99,13.27-2.84,3.96-6.73,7.09-11.67,9.39-4.94,2.29-10.69,3.45-17.25,3.45h0ZM444.99,29.63h32.45c0-4.69-1.42-8.48-4.26-11.36-2.84-2.88-6.61-4.33-11.3-4.33-3.04,0-5.78.69-8.22,2.05-2.45,1.37-4.4,3.23-5.87,5.57-1.47,2.35-2.4,5.04-2.79,8.06Z"/>
  <path d="M503.81,74.06V2.5h18.94v2.93c0,.98-.03,2.05-.07,3.23-.05,1.17-.18,2.4-.37,3.67,1.37-2.25,3.01-4.3,4.92-6.16,1.91-1.85,4.28-3.35,7.12-4.47,2.84-1.12,6.17-1.69,9.99-1.69,5.29,0,9.81,1.17,13.58,3.52,3.77,2.35,6.63,5.67,8.59,9.97,1.96,4.3,2.94,9.39,2.94,15.25v45.31h-18.94V31.68c0-3.42-.51-6.35-1.54-8.8-1.03-2.44-2.5-4.35-4.41-5.72-1.91-1.37-4.23-2.05-6.97-2.05-2.94,0-5.48.73-7.64,2.2-2.15,1.46-3.87,3.5-5.14,6.08-1.27,2.59-1.91,5.5-1.91,8.73v41.94h-19.09Z"/>
  <path d="M611.68,76.7c-7.53,0-14.05-1.57-19.53-4.69-5.48-3.13-9.69-7.55-12.63-13.27-2.94-5.72-4.4-12.59-4.4-20.6,0-5.87.97-11.17,2.94-15.91,1.96-4.74,4.62-8.77,8-12.1,3.38-3.32,7.34-5.84,11.89-7.55,4.55-1.71,9.42-2.57,14.61-2.57,7.05,0,13.07,1.32,18.07,3.96,4.99,2.64,8.83,6.21,11.52,10.71,2.69,4.5,4.33,9.53,4.92,15.11h-19.38c-.19-3.91-1.52-7.33-3.96-10.27-2.45-2.93-6.12-4.4-11.01-4.4-2.55,0-4.9.47-7.05,1.39-2.15.93-4.09,2.4-5.8,4.4-1.71,2.01-3.04,4.45-3.96,7.33-.93,2.88-1.4,6.23-1.4,10.05,0,4.6.76,8.68,2.28,12.24,1.52,3.57,3.59,6.35,6.24,8.36,2.64,2,5.73,3.01,9.25,3.01,5.19,0,9.08-1.56,11.67-4.69,2.59-3.13,4.09-6.74,4.48-10.85h19.38c-.88,6.16-2.79,11.51-5.73,16.06-2.94,4.55-6.93,8.06-11.97,10.56-5.04,2.49-11.19,3.74-18.43,3.74h0Z"/>
  <path d="M659,106.47c-2.15,0-3.99-.12-5.51-.37-1.52-.25-2.77-.56-3.75-.95v-14.96c.68.1,1.52.24,2.5.44.98.19,2.11.29,3.38.29,3.04,0,5.82-.91,8.37-2.71,2.54-1.81,4.89-5.6,7.05-11.36l1.32-3.37-27.6-70.98h21.44l14.38,44.44c.49,1.57.93,3.01,1.32,4.33.39,1.32.78,2.86,1.17,4.62.3-1.76.64-3.3,1.03-4.62.39-1.32.79-2.76,1.18-4.33l13.8-44.44h19.82l-29.51,79.63c-1.86,5.18-4.09,9.58-6.68,13.2-2.6,3.62-5.8,6.38-9.62,8.29-3.82,1.9-8.51,2.86-14.09,2.86h0Z"/>
</svg>