<svg width="1200" height="2129" viewBox="0 0 1200 2129" fill="none" xmlns="http://www.w3.org/2000/svg">
<path d="M268.92 383.372V373.58H228.12V446H238.32V412.952H263.82V403.16H238.32V383.372H268.92Z" fill="#F0ECD7"/>
<path d="M293.638 392.144C290.17 392.144 286.6 393.368 283.846 395.612V392.96H273.442C273.646 395 273.85 400.1 273.85 404.18V446H284.05V415.91C284.05 406.73 286.804 402.14 293.74 402.14C295.576 402.14 296.8 402.344 298.636 402.854V392.654C296.596 392.246 295.27 392.144 293.638 392.144Z" fill="#F0ECD7"/>
<path d="M346.226 423.254C346.43 421.52 346.634 418.766 346.634 416.522C346.634 403.16 339.698 392.144 325.928 392.144C311.138 392.144 302.57 404.486 302.57 420.092C302.57 435.596 310.934 446.816 325.724 446.816C336.74 446.816 343.166 440.9 346.226 429.578H335.72C332.864 436.004 330.212 436.718 325.724 436.718C316.136 436.718 313.382 428.048 313.382 423.254H346.226ZM325.928 402.344C332.252 402.344 335.312 406.322 336.23 413.972H313.79C315.218 407.342 318.686 402.344 325.928 402.344Z" fill="#F0ECD7"/>
<path d="M397.625 423.254C397.829 421.52 398.033 418.766 398.033 416.522C398.033 403.16 391.097 392.144 377.327 392.144C362.537 392.144 353.969 404.486 353.969 420.092C353.969 435.596 362.333 446.816 377.123 446.816C388.139 446.816 394.565 440.9 397.625 429.578H387.119C384.263 436.004 381.611 436.718 377.123 436.718C367.535 436.718 364.781 428.048 364.781 423.254H397.625ZM377.327 402.344C383.651 402.344 386.711 406.322 387.629 413.972H365.189C366.617 407.342 370.085 402.344 377.327 402.344Z" fill="#F0ECD7"/>
<path d="M452.515 392.144C449.047 392.144 445.477 393.368 442.723 395.612V392.96H432.319C432.523 395 432.727 400.1 432.727 404.18V446H442.927V415.91C442.927 406.73 445.681 402.14 452.617 402.14C454.453 402.14 455.677 402.344 457.513 402.854V392.654C455.473 392.246 454.147 392.144 452.515 392.144Z" fill="#F0ECD7"/>
<path d="M505.103 423.254C505.307 421.52 505.511 418.766 505.511 416.522C505.511 403.16 498.575 392.144 484.805 392.144C470.015 392.144 461.447 404.486 461.447 420.092C461.447 435.596 469.811 446.816 484.601 446.816C495.617 446.816 502.043 440.9 505.103 429.578H494.597C491.741 436.004 489.089 436.718 484.601 436.718C475.013 436.718 472.259 428.048 472.259 423.254H505.103ZM484.805 402.344C491.129 402.344 494.189 406.322 495.107 413.972H472.667C474.095 407.342 477.563 402.344 484.805 402.344Z" fill="#F0ECD7"/>
<path d="M538.142 392.144C533.348 392.144 529.166 393.776 525.8 396.53L525.902 392.96H515.294L515.396 400.1C515.498 405.608 515.6 460.484 515.396 463.544H525.494V442.838C528.758 445.49 532.838 446.714 537.326 446.714C551.912 446.714 559.868 434.576 559.868 419.378C559.868 404.486 552.116 392.144 538.142 392.144ZM537.326 436.82C529.166 436.82 525.494 428.66 525.494 419.888C525.494 413.36 528.146 402.14 538.142 402.14C546.404 402.14 549.974 410.606 549.974 419.378C549.974 428.252 546.2 436.82 537.326 436.82Z" fill="#F0ECD7"/>
<path d="M607.862 446C607.454 443.348 607.454 437.024 607.454 433.454V412.238C607.454 398.876 601.028 392.144 588.278 392.144C577.976 392.144 570.428 398.162 569.816 407.342H580.016C580.526 404.588 582.566 402.242 588.278 402.242C595.316 402.242 597.05 405.2 597.254 410.912V413.87C594.296 413.462 591.44 413.156 588.686 413.156C575.732 413.156 567.062 419.072 567.062 430.598C567.062 438.86 572.57 446.816 584.504 446.816C588.38 446.816 594.194 444.878 597.56 442.022L597.764 446H607.862ZM585.728 436.616C580.22 436.616 577.466 433.352 577.466 430.088C577.466 424.784 582.77 423.05 589.91 423.05C592.154 423.05 594.602 423.254 597.254 423.56C597.152 427.64 595.724 436.616 585.728 436.616Z" fill="#F0ECD7"/>
<path d="M618.888 373.58V385.31H629.088V373.58H618.888ZM618.888 392.96V446H629.088V392.96H618.888Z" fill="#F0ECD7"/>
<path d="M661.496 392.144C658.028 392.144 654.458 393.368 651.704 395.612V392.96H641.3C641.504 395 641.708 400.1 641.708 404.18V446H651.908V415.91C651.908 406.73 654.662 402.14 661.598 402.14C663.434 402.14 664.658 402.344 666.494 402.854V392.654C664.454 392.246 663.128 392.144 661.496 392.144Z" fill="#F0ECD7"/>
<path d="M707.359 429.986C707.359 421.01 700.525 417.542 693.793 415.4C687.469 413.258 681.247 412.136 681.247 407.954C681.247 405.302 682.777 402.242 689.101 402.242C695.425 402.242 696.445 405.302 696.445 408.464H706.645C706.645 398.366 699.811 392.042 689.101 392.042C678.493 392.042 671.047 398.57 671.047 407.954C671.047 417.032 676.861 420.704 683.083 423.05C690.019 425.6 697.465 426.416 697.465 431.21C697.465 434.474 695.833 437.228 688.387 437.228C682.063 437.228 680.227 434.576 680.227 429.476H670.027C670.027 439.982 676.045 446.816 688.387 446.816C699.913 446.816 707.359 440.288 707.359 429.986Z" fill="#F0ECD7"/>
<path d="M765.09 370.724C751.116 370.724 746.22 380.21 746.22 391.736V392.96H738.162V403.364H746.22L746.118 446H756.318L756.42 403.364H763.968V392.96H756.42C756.624 383.27 759.48 381.026 766.11 381.026H766.62V370.826C766.62 370.826 766.008 370.724 765.09 370.724Z" fill="#F0ECD7"/>
<path d="M817.185 418.97C817.185 402.548 809.127 392.042 793.827 392.042C779.241 392.042 770.265 402.242 770.265 418.97C770.265 434.78 778.119 446.816 793.827 446.816C809.637 446.816 817.185 433.454 817.185 418.97ZM793.827 436.616C782.505 436.616 780.465 425.906 780.465 419.072C780.465 410.912 783.321 402.242 793.827 402.242C803.925 402.242 806.985 410.402 806.985 419.072C806.985 428.966 802.905 436.616 793.827 436.616Z" fill="#F0ECD7"/>
<path d="M846.371 392.144C842.903 392.144 839.333 393.368 836.579 395.612V392.96H826.175C826.379 395 826.583 400.1 826.583 404.18V446H836.783V415.91C836.783 406.73 839.537 402.14 846.473 402.14C848.309 402.14 849.533 402.344 851.369 402.854V392.654C849.329 392.246 848.003 392.144 846.371 392.144Z" fill="#F0ECD7"/>
<path d="M898.959 423.254C899.163 421.52 899.367 418.766 899.367 416.522C899.367 403.16 892.431 392.144 878.661 392.144C863.871 392.144 855.303 404.486 855.303 420.092C855.303 435.596 863.667 446.816 878.457 446.816C889.473 446.816 895.899 440.9 898.959 429.578H888.453C885.597 436.004 882.945 436.718 878.457 436.718C868.869 436.718 866.115 428.048 866.115 423.254H898.959ZM878.661 402.344C884.985 402.344 888.045 406.322 888.963 413.972H866.523C867.951 407.342 871.419 402.344 878.661 402.344Z" fill="#F0ECD7"/>
<path d="M937.961 392.858L925.721 433.454L913.481 392.858H902.261L920.111 446H931.331L949.181 392.858H937.961Z" fill="#F0ECD7"/>
<path d="M996.775 423.254C996.979 421.52 997.183 418.766 997.183 416.522C997.183 403.16 990.247 392.144 976.477 392.144C961.687 392.144 953.119 404.486 953.119 420.092C953.119 435.596 961.483 446.816 976.273 446.816C987.289 446.816 993.715 440.9 996.775 429.578H986.269C983.413 436.004 980.761 436.718 976.273 436.718C966.685 436.718 963.931 428.048 963.931 423.254H996.775ZM976.477 402.344C982.801 402.344 985.861 406.322 986.779 413.972H964.339C965.767 407.342 969.235 402.344 976.477 402.344Z" fill="#F0ECD7"/>
<path d="M1026.46 392.144C1023 392.144 1019.43 393.368 1016.67 395.612V392.96H1006.27C1006.47 395 1006.68 400.1 1006.68 404.18V446H1016.88V415.91C1016.88 406.73 1019.63 402.14 1026.57 402.14C1028.4 402.14 1029.63 402.344 1031.46 402.854V392.654C1029.42 392.246 1028.1 392.144 1026.46 392.144Z" fill="#F0ECD7"/>
<path d="M1031.67 445.898H1042.17V433.556H1031.67V445.898Z" fill="#F0ECD7"/>
</svg>
